<mxfile host="app.diagrams.net" modified="2022-10-19T14:32:27.735Z" agent="5.0 (X11; Linux x86_64) AppleWebKit/537.36 (KHTML, like Gecko) Chrome/104.0.5112.79 Safari/537.36" etag="EbNp9B2iJRHJS2rJX_jm" version="20.4.1" type="github">
  <diagram id="CONZZQRORafUj9CkhECg" name="Page-1">
    <mxGraphModel dx="1718" dy="482" grid="1" gridSize="10" guides="1" tooltips="1" connect="1" arrows="1" fold="1" page="1" pageScale="1" pageWidth="850" pageHeight="1100" math="0" shadow="0">
      <root>
        <mxCell id="0" />
        <mxCell id="1" parent="0" />
        <mxCell id="AUOud6_O9D8pO-yYXwd0-2" value="&lt;div style=&quot;text-align: left;&quot;&gt;&lt;b style=&quot;background-color: initial;&quot;&gt;label&lt;/b&gt;&lt;span style=&quot;background-color: initial;&quot;&gt;: neartestnetarchive=neartestnetarchive&lt;/span&gt;&lt;/div&gt;&lt;b&gt;&lt;div style=&quot;text-align: left;&quot;&gt;&lt;b style=&quot;background-color: initial;&quot;&gt;taints&lt;/b&gt;&lt;span style=&quot;background-color: initial; font-weight: normal;&quot;&gt;: neartestnetarchive=neartestnetarchive&lt;/span&gt;&lt;/div&gt;&lt;/b&gt;&lt;b&gt;&lt;div style=&quot;text-align: left;&quot;&gt;&lt;b style=&quot;background-color: initial;&quot;&gt;az&lt;/b&gt;&lt;span style=&quot;background-color: initial; font-weight: normal;&quot;&gt;: eu-central-b&lt;/span&gt;&lt;/div&gt;&lt;/b&gt;" style="rounded=1;whiteSpace=wrap;html=1;" vertex="1" parent="1">
          <mxGeometry x="322" y="17" width="278" height="50" as="geometry" />
        </mxCell>
        <mxCell id="AUOud6_O9D8pO-yYXwd0-4" value="&lt;div style=&quot;&quot;&gt;&lt;b style=&quot;background-color: initial;&quot;&gt;&amp;nbsp; &amp;nbsp; &amp;nbsp;label&lt;/b&gt;&lt;span style=&quot;background-color: initial;&quot;&gt;: neartestnetfull=neartestnetfull&lt;/span&gt;&lt;/div&gt;&lt;b&gt;&lt;div style=&quot;&quot;&gt;&lt;b style=&quot;background-color: initial;&quot;&gt;&amp;nbsp; &amp;nbsp; &amp;nbsp;taints&lt;/b&gt;&lt;span style=&quot;background-color: initial; font-weight: normal;&quot;&gt;: neartestnetfull=neartestnetfull&lt;/span&gt;&lt;/div&gt;&lt;/b&gt;&lt;b&gt;&lt;div style=&quot;&quot;&gt;&lt;b style=&quot;background-color: initial;&quot;&gt;&amp;nbsp; &amp;nbsp; &amp;nbsp;az&lt;/b&gt;&lt;span style=&quot;background-color: initial; font-weight: normal;&quot;&gt;: eu-central-b&lt;/span&gt;&lt;/div&gt;&lt;/b&gt;" style="rounded=1;whiteSpace=wrap;html=1;align=left;" vertex="1" parent="1">
          <mxGeometry x="320" y="77" width="278" height="50" as="geometry" />
        </mxCell>
        <mxCell id="AUOud6_O9D8pO-yYXwd0-8" value="&lt;div style=&quot;&quot;&gt;&lt;b style=&quot;background-color: initial;&quot;&gt;&amp;nbsp; &amp;nbsp; &amp;nbsp;label&lt;/b&gt;&lt;span style=&quot;background-color: initial;&quot;&gt;: neararchive=neararchive&lt;/span&gt;&lt;/div&gt;&lt;b&gt;&lt;div style=&quot;&quot;&gt;&lt;b style=&quot;background-color: initial;&quot;&gt;&amp;nbsp; &amp;nbsp; &amp;nbsp;taints&lt;/b&gt;&lt;span style=&quot;background-color: initial; font-weight: normal;&quot;&gt;: neararchive=neararchive&lt;/span&gt;&lt;/div&gt;&lt;/b&gt;&lt;b&gt;&lt;div style=&quot;&quot;&gt;&lt;b style=&quot;background-color: initial;&quot;&gt;&amp;nbsp; &amp;nbsp; &amp;nbsp;az&lt;/b&gt;&lt;span style=&quot;background-color: initial; font-weight: normal;&quot;&gt;: eu-central-a&lt;/span&gt;&lt;/div&gt;&lt;/b&gt;" style="rounded=1;whiteSpace=wrap;html=1;align=left;" vertex="1" parent="1">
          <mxGeometry x="278" y="272" width="278" height="50" as="geometry" />
        </mxCell>
        <mxCell id="AUOud6_O9D8pO-yYXwd0-9" value="&lt;div style=&quot;&quot;&gt;&lt;b style=&quot;background-color: initial;&quot;&gt;&amp;nbsp; &amp;nbsp; &amp;nbsp;label&lt;/b&gt;&lt;span style=&quot;background-color: initial;&quot;&gt;: nearfull=nearfull&lt;/span&gt;&lt;/div&gt;&lt;b&gt;&lt;div style=&quot;&quot;&gt;&lt;b style=&quot;background-color: initial;&quot;&gt;&amp;nbsp; &amp;nbsp; &amp;nbsp;taints&lt;/b&gt;&lt;span style=&quot;background-color: initial; font-weight: normal;&quot;&gt;: nearfull=nearfull&lt;/span&gt;&lt;/div&gt;&lt;/b&gt;&lt;b&gt;&lt;div style=&quot;&quot;&gt;&lt;b style=&quot;background-color: initial;&quot;&gt;&amp;nbsp; &amp;nbsp; &amp;nbsp;az&lt;/b&gt;&lt;span style=&quot;background-color: initial; font-weight: normal;&quot;&gt;: eu-central-a&lt;/span&gt;&lt;/div&gt;&lt;/b&gt;" style="rounded=1;whiteSpace=wrap;html=1;align=left;" vertex="1" parent="1">
          <mxGeometry x="276" y="332" width="278" height="50" as="geometry" />
        </mxCell>
        <mxCell id="AUOud6_O9D8pO-yYXwd0-10" value="near-testnet-archive" style="rounded=1;whiteSpace=wrap;html=1;" vertex="1" parent="1">
          <mxGeometry x="648" y="17" width="120" height="40" as="geometry" />
        </mxCell>
        <mxCell id="AUOud6_O9D8pO-yYXwd0-11" value="near-testnet-full" style="rounded=1;whiteSpace=wrap;html=1;" vertex="1" parent="1">
          <mxGeometry x="648" y="82" width="120" height="40" as="geometry" />
        </mxCell>
        <mxCell id="AUOud6_O9D8pO-yYXwd0-12" value="near-mainnet-archive" style="rounded=1;whiteSpace=wrap;html=1;" vertex="1" parent="1">
          <mxGeometry x="606" y="272" width="120" height="40" as="geometry" />
        </mxCell>
        <mxCell id="AUOud6_O9D8pO-yYXwd0-13" value="near-mainnet-full" style="rounded=1;whiteSpace=wrap;html=1;" vertex="1" parent="1">
          <mxGeometry x="606" y="332" width="120" height="40" as="geometry" />
        </mxCell>
        <mxCell id="AUOud6_O9D8pO-yYXwd0-16" value="" style="endArrow=classic;startArrow=classic;html=1;rounded=0;entryX=0;entryY=0;entryDx=0;entryDy=0;exitX=1;exitY=0;exitDx=0;exitDy=0;" edge="1" parent="1">
          <mxGeometry width="50" height="50" relative="1" as="geometry">
            <mxPoint x="599" y="96" as="sourcePoint" />
            <mxPoint x="647" y="96" as="targetPoint" />
          </mxGeometry>
        </mxCell>
        <mxCell id="AUOud6_O9D8pO-yYXwd0-17" value="" style="endArrow=classic;startArrow=classic;html=1;rounded=0;entryX=0;entryY=0;entryDx=0;entryDy=0;exitX=1;exitY=0;exitDx=0;exitDy=0;" edge="1" parent="1">
          <mxGeometry width="50" height="50" relative="1" as="geometry">
            <mxPoint x="557" y="290" as="sourcePoint" />
            <mxPoint x="605" y="290" as="targetPoint" />
          </mxGeometry>
        </mxCell>
        <mxCell id="AUOud6_O9D8pO-yYXwd0-18" value="" style="endArrow=classic;startArrow=classic;html=1;rounded=0;entryX=0;entryY=0;entryDx=0;entryDy=0;exitX=1;exitY=0;exitDx=0;exitDy=0;" edge="1" parent="1">
          <mxGeometry width="50" height="50" relative="1" as="geometry">
            <mxPoint x="555" y="352" as="sourcePoint" />
            <mxPoint x="603" y="352" as="targetPoint" />
          </mxGeometry>
        </mxCell>
        <mxCell id="AUOud6_O9D8pO-yYXwd0-19" value="" style="endArrow=classic;startArrow=classic;html=1;rounded=0;entryX=0;entryY=0;entryDx=0;entryDy=0;exitX=1;exitY=0;exitDx=0;exitDy=0;" edge="1" parent="1">
          <mxGeometry width="50" height="50" relative="1" as="geometry">
            <mxPoint x="600" y="38" as="sourcePoint" />
            <mxPoint x="648" y="38" as="targetPoint" />
          </mxGeometry>
        </mxCell>
        <mxCell id="AUOud6_O9D8pO-yYXwd0-20" value="gp3&lt;br&gt;3.3 TB" style="shape=cylinder3;whiteSpace=wrap;html=1;boundedLbl=1;backgroundOutline=1;size=15;" vertex="1" parent="1">
          <mxGeometry x="811" y="7" width="50" height="60" as="geometry" />
        </mxCell>
        <mxCell id="AUOud6_O9D8pO-yYXwd0-21" value="gp3&lt;br&gt;800 GB" style="shape=cylinder3;whiteSpace=wrap;html=1;boundedLbl=1;backgroundOutline=1;size=15;" vertex="1" parent="1">
          <mxGeometry x="811" y="72" width="50" height="60" as="geometry" />
        </mxCell>
        <mxCell id="AUOud6_O9D8pO-yYXwd0-22" value="gp3&lt;br&gt;8 TB" style="shape=cylinder3;whiteSpace=wrap;html=1;boundedLbl=1;backgroundOutline=1;size=15;" vertex="1" parent="1">
          <mxGeometry x="769" y="242" width="50" height="60" as="geometry" />
        </mxCell>
        <mxCell id="AUOud6_O9D8pO-yYXwd0-23" value="&lt;span style=&quot;color: rgb(0, 0, 0); font-family: Helvetica; font-size: 12px; font-style: normal; font-variant-ligatures: normal; font-variant-caps: normal; font-weight: 400; letter-spacing: normal; orphans: 2; text-align: center; text-indent: 0px; text-transform: none; widows: 2; word-spacing: 0px; -webkit-text-stroke-width: 0px; background-color: rgb(248, 249, 250); text-decoration-thickness: initial; text-decoration-style: initial; text-decoration-color: initial; float: none; display: inline !important;&quot;&gt;gp3&lt;/span&gt;&lt;br style=&quot;color: rgb(0, 0, 0); font-family: Helvetica; font-size: 12px; font-style: normal; font-variant-ligatures: normal; font-variant-caps: normal; font-weight: 400; letter-spacing: normal; orphans: 2; text-align: center; text-indent: 0px; text-transform: none; widows: 2; word-spacing: 0px; -webkit-text-stroke-width: 0px; background-color: rgb(248, 249, 250); text-decoration-thickness: initial; text-decoration-style: initial; text-decoration-color: initial;&quot;&gt;&lt;span style=&quot;color: rgb(0, 0, 0); font-family: Helvetica; font-size: 12px; font-style: normal; font-variant-ligatures: normal; font-variant-caps: normal; font-weight: 400; letter-spacing: normal; orphans: 2; text-align: center; text-indent: 0px; text-transform: none; widows: 2; word-spacing: 0px; -webkit-text-stroke-width: 0px; background-color: rgb(248, 249, 250); text-decoration-thickness: initial; text-decoration-style: initial; text-decoration-color: initial; float: none; display: inline !important;&quot;&gt;800 GB&lt;/span&gt;" style="shape=cylinder3;whiteSpace=wrap;html=1;boundedLbl=1;backgroundOutline=1;size=15;" vertex="1" parent="1">
          <mxGeometry x="769" y="312" width="50" height="60" as="geometry" />
        </mxCell>
        <mxCell id="AUOud6_O9D8pO-yYXwd0-24" value="" style="endArrow=classic;startArrow=classic;html=1;rounded=0;entryX=0;entryY=0;entryDx=0;entryDy=0;exitX=1;exitY=0;exitDx=0;exitDy=0;" edge="1" parent="1">
          <mxGeometry width="50" height="50" relative="1" as="geometry">
            <mxPoint x="765" y="40" as="sourcePoint" />
            <mxPoint x="813" y="40" as="targetPoint" />
          </mxGeometry>
        </mxCell>
        <mxCell id="AUOud6_O9D8pO-yYXwd0-25" value="" style="endArrow=classic;startArrow=classic;html=1;rounded=0;entryX=0;entryY=0;entryDx=0;entryDy=0;exitX=1;exitY=0;exitDx=0;exitDy=0;" edge="1" parent="1">
          <mxGeometry width="50" height="50" relative="1" as="geometry">
            <mxPoint x="723" y="349" as="sourcePoint" />
            <mxPoint x="771" y="349" as="targetPoint" />
          </mxGeometry>
        </mxCell>
        <mxCell id="AUOud6_O9D8pO-yYXwd0-26" value="" style="endArrow=classic;startArrow=classic;html=1;rounded=0;entryX=0;entryY=0;entryDx=0;entryDy=0;exitX=1;exitY=0;exitDx=0;exitDy=0;" edge="1" parent="1">
          <mxGeometry width="50" height="50" relative="1" as="geometry">
            <mxPoint x="722" y="284" as="sourcePoint" />
            <mxPoint x="770" y="284" as="targetPoint" />
          </mxGeometry>
        </mxCell>
        <mxCell id="AUOud6_O9D8pO-yYXwd0-27" value="" style="endArrow=classic;startArrow=classic;html=1;rounded=0;entryX=0;entryY=0;entryDx=0;entryDy=0;exitX=1;exitY=0;exitDx=0;exitDy=0;" edge="1" parent="1">
          <mxGeometry width="50" height="50" relative="1" as="geometry">
            <mxPoint x="765" y="103" as="sourcePoint" />
            <mxPoint x="813" y="103" as="targetPoint" />
          </mxGeometry>
        </mxCell>
        <mxCell id="AUOud6_O9D8pO-yYXwd0-28" value="&lt;div style=&quot;&quot;&gt;&lt;b style=&quot;background-color: initial;&quot;&gt;&amp;nbsp; &amp;nbsp; &amp;nbsp;label&lt;/b&gt;&lt;span style=&quot;background-color: initial;&quot;&gt;: management=management&lt;/span&gt;&lt;/div&gt;&lt;b&gt;&lt;div style=&quot;&quot;&gt;&lt;b style=&quot;background-color: initial;&quot;&gt;&amp;nbsp; &amp;nbsp; &amp;nbsp;az&lt;/b&gt;&lt;span style=&quot;background-color: initial; font-weight: normal;&quot;&gt;: eu-central-a&lt;/span&gt;&lt;br&gt;&lt;/div&gt;&lt;/b&gt;" style="rounded=1;whiteSpace=wrap;html=1;align=left;" vertex="1" parent="1">
          <mxGeometry x="278" y="391" width="278" height="50" as="geometry" />
        </mxCell>
        <mxCell id="AUOud6_O9D8pO-yYXwd0-33" value="gp2&lt;br&gt;redistest&lt;br&gt;8GB" style="shape=cylinder3;whiteSpace=wrap;html=1;boundedLbl=1;backgroundOutline=1;size=15;" vertex="1" parent="1">
          <mxGeometry x="610" y="480" width="50" height="80" as="geometry" />
        </mxCell>
        <mxCell id="AUOud6_O9D8pO-yYXwd0-38" value="gp2&lt;br&gt;redistest&lt;br&gt;8GB" style="shape=cylinder3;whiteSpace=wrap;html=1;boundedLbl=1;backgroundOutline=1;size=15;" vertex="1" parent="1">
          <mxGeometry x="670" y="480" width="50" height="80" as="geometry" />
        </mxCell>
        <mxCell id="AUOud6_O9D8pO-yYXwd0-39" value="gp2&lt;br&gt;redistest&lt;br&gt;8GB" style="shape=cylinder3;whiteSpace=wrap;html=1;boundedLbl=1;backgroundOutline=1;size=15;" vertex="1" parent="1">
          <mxGeometry x="730" y="480" width="50" height="80" as="geometry" />
        </mxCell>
        <mxCell id="AUOud6_O9D8pO-yYXwd0-40" value="gp2&lt;br&gt;redistest&lt;br&gt;8GB" style="shape=cylinder3;whiteSpace=wrap;html=1;boundedLbl=1;backgroundOutline=1;size=15;" vertex="1" parent="1">
          <mxGeometry x="790" y="480" width="50" height="80" as="geometry" />
        </mxCell>
        <mxCell id="AUOud6_O9D8pO-yYXwd0-41" value="gp2&lt;br&gt;redis&lt;br&gt;8GB" style="shape=cylinder3;whiteSpace=wrap;html=1;boundedLbl=1;backgroundOutline=1;size=15;" vertex="1" parent="1">
          <mxGeometry x="610" y="570" width="40" height="80" as="geometry" />
        </mxCell>
        <mxCell id="AUOud6_O9D8pO-yYXwd0-42" value="gp2&lt;br&gt;redis&lt;br&gt;8GB" style="shape=cylinder3;whiteSpace=wrap;html=1;boundedLbl=1;backgroundOutline=1;size=15;" vertex="1" parent="1">
          <mxGeometry x="660" y="570" width="40" height="80" as="geometry" />
        </mxCell>
        <mxCell id="AUOud6_O9D8pO-yYXwd0-43" value="gp2&lt;br&gt;redis&lt;br&gt;8GB" style="shape=cylinder3;whiteSpace=wrap;html=1;boundedLbl=1;backgroundOutline=1;size=15;" vertex="1" parent="1">
          <mxGeometry x="710" y="570" width="40" height="80" as="geometry" />
        </mxCell>
        <mxCell id="AUOud6_O9D8pO-yYXwd0-44" value="gp2&lt;br&gt;redis&lt;br&gt;8GB" style="shape=cylinder3;whiteSpace=wrap;html=1;boundedLbl=1;backgroundOutline=1;size=15;" vertex="1" parent="1">
          <mxGeometry x="760" y="570" width="40" height="80" as="geometry" />
        </mxCell>
        <mxCell id="AUOud6_O9D8pO-yYXwd0-45" value="gp2&lt;br&gt;clickhouse&lt;br&gt;150GB" style="shape=cylinder3;whiteSpace=wrap;html=1;boundedLbl=1;backgroundOutline=1;size=15;" vertex="1" parent="1">
          <mxGeometry x="660" y="390" width="60" height="80" as="geometry" />
        </mxCell>
        <mxCell id="AUOud6_O9D8pO-yYXwd0-46" value="gp2&lt;br&gt;clickhouse&lt;br&gt;300GB" style="shape=cylinder3;whiteSpace=wrap;html=1;boundedLbl=1;backgroundOutline=1;size=15;" vertex="1" parent="1">
          <mxGeometry x="740" y="390" width="60" height="80" as="geometry" />
        </mxCell>
        <mxCell id="AUOud6_O9D8pO-yYXwd0-47" value="gp2&lt;br&gt;checker&lt;br&gt;8GB" style="shape=cylinder3;whiteSpace=wrap;html=1;boundedLbl=1;backgroundOutline=1;size=15;" vertex="1" parent="1">
          <mxGeometry x="604" y="664" width="60" height="80" as="geometry" />
        </mxCell>
        <mxCell id="AUOud6_O9D8pO-yYXwd0-48" value="gp2&lt;br&gt;grafana&lt;br&gt;19GB" style="shape=cylinder3;whiteSpace=wrap;html=1;boundedLbl=1;backgroundOutline=1;size=15;" vertex="1" parent="1">
          <mxGeometry x="674" y="664" width="60" height="80" as="geometry" />
        </mxCell>
        <mxCell id="AUOud6_O9D8pO-yYXwd0-49" value="gp2&lt;br&gt;loki&lt;br&gt;10GB" style="shape=cylinder3;whiteSpace=wrap;html=1;boundedLbl=1;backgroundOutline=1;size=15;" vertex="1" parent="1">
          <mxGeometry x="744" y="664" width="60" height="80" as="geometry" />
        </mxCell>
        <mxCell id="AUOud6_O9D8pO-yYXwd0-50" value="AWS LB" style="ellipse;shape=cloud;whiteSpace=wrap;html=1;" vertex="1" parent="1">
          <mxGeometry x="-100" y="272" width="120" height="80" as="geometry" />
        </mxCell>
        <mxCell id="AUOud6_O9D8pO-yYXwd0-52" value="" style="endArrow=classic;startArrow=classic;html=1;rounded=0;exitX=0.375;exitY=-0.067;exitDx=0;exitDy=0;exitPerimeter=0;" edge="1" parent="1">
          <mxGeometry width="50" height="50" relative="1" as="geometry">
            <mxPoint x="10" y="312" as="sourcePoint" />
            <mxPoint x="70" y="312.02" as="targetPoint" />
          </mxGeometry>
        </mxCell>
        <mxCell id="AUOud6_O9D8pO-yYXwd0-55" value="chainscale-lb&lt;br&gt;pod" style="rounded=1;whiteSpace=wrap;html=1;" vertex="1" parent="1">
          <mxGeometry x="170" y="272" width="80" height="40" as="geometry" />
        </mxCell>
        <mxCell id="AUOud6_O9D8pO-yYXwd0-57" value="chainscale-lb&lt;br&gt;pod" style="rounded=1;whiteSpace=wrap;html=1;" vertex="1" parent="1">
          <mxGeometry x="170" y="332" width="80" height="40" as="geometry" />
        </mxCell>
        <mxCell id="AUOud6_O9D8pO-yYXwd0-58" value="" style="endArrow=classic;startArrow=classic;html=1;rounded=0;" edge="1" parent="1">
          <mxGeometry width="50" height="50" relative="1" as="geometry">
            <mxPoint x="245" y="290" as="sourcePoint" />
            <mxPoint x="278" y="290" as="targetPoint" />
          </mxGeometry>
        </mxCell>
        <mxCell id="AUOud6_O9D8pO-yYXwd0-59" value="" style="endArrow=classic;startArrow=classic;html=1;rounded=0;" edge="1" parent="1">
          <mxGeometry width="50" height="50" relative="1" as="geometry">
            <mxPoint x="246" y="343" as="sourcePoint" />
            <mxPoint x="279" y="343" as="targetPoint" />
          </mxGeometry>
        </mxCell>
        <mxCell id="AUOud6_O9D8pO-yYXwd0-60" value="chainscale-lb&lt;br&gt;service" style="rounded=1;whiteSpace=wrap;html=1;" vertex="1" parent="1">
          <mxGeometry x="70" y="292" width="80" height="40" as="geometry" />
        </mxCell>
        <mxCell id="AUOud6_O9D8pO-yYXwd0-62" value="AWS LB" style="ellipse;shape=cloud;whiteSpace=wrap;html=1;" vertex="1" parent="1">
          <mxGeometry x="-110" y="510" width="120" height="80" as="geometry" />
        </mxCell>
        <mxCell id="AUOud6_O9D8pO-yYXwd0-63" value="ingress&lt;br&gt;service" style="rounded=1;whiteSpace=wrap;html=1;" vertex="1" parent="1">
          <mxGeometry x="50" y="530" width="80" height="40" as="geometry" />
        </mxCell>
        <mxCell id="AUOud6_O9D8pO-yYXwd0-64" value="" style="endArrow=classic;startArrow=classic;html=1;rounded=0;exitX=0.375;exitY=-0.067;exitDx=0;exitDy=0;exitPerimeter=0;" edge="1" parent="1">
          <mxGeometry width="50" height="50" relative="1" as="geometry">
            <mxPoint x="-5" y="550" as="sourcePoint" />
            <mxPoint x="55" y="550.02" as="targetPoint" />
          </mxGeometry>
        </mxCell>
        <mxCell id="AUOud6_O9D8pO-yYXwd0-65" value="service near-testnet-archive" style="rounded=1;whiteSpace=wrap;html=1;" vertex="1" parent="1">
          <mxGeometry x="341" y="146" width="180" height="20" as="geometry" />
        </mxCell>
        <mxCell id="AUOud6_O9D8pO-yYXwd0-66" value="service near-testnet-full" style="rounded=1;whiteSpace=wrap;html=1;" vertex="1" parent="1">
          <mxGeometry x="340" y="172" width="180" height="20" as="geometry" />
        </mxCell>
        <mxCell id="AUOud6_O9D8pO-yYXwd0-67" value="service near-mainnet-archive" style="rounded=1;whiteSpace=wrap;html=1;" vertex="1" parent="1">
          <mxGeometry x="341" y="198" width="180" height="20" as="geometry" />
        </mxCell>
        <mxCell id="AUOud6_O9D8pO-yYXwd0-68" value="service near-mainnet-full" style="rounded=1;whiteSpace=wrap;html=1;" vertex="1" parent="1">
          <mxGeometry x="341" y="222" width="180" height="20" as="geometry" />
        </mxCell>
        <mxCell id="AUOud6_O9D8pO-yYXwd0-73" value="" style="shape=flexArrow;endArrow=classic;startArrow=classic;html=1;rounded=0;exitX=0.125;exitY=-0.05;exitDx=0;exitDy=0;exitPerimeter=0;" edge="1" parent="1">
          <mxGeometry width="100" height="100" relative="1" as="geometry">
            <mxPoint x="213" y="269" as="sourcePoint" />
            <mxPoint x="320" y="189" as="targetPoint" />
            <Array as="points">
              <mxPoint x="213" y="189" />
            </Array>
          </mxGeometry>
        </mxCell>
        <mxCell id="AUOud6_O9D8pO-yYXwd0-74" value="" style="endArrow=none;html=1;rounded=0;" edge="1" parent="1">
          <mxGeometry width="50" height="50" relative="1" as="geometry">
            <mxPoint x="330" y="246" as="sourcePoint" />
            <mxPoint x="330" y="146" as="targetPoint" />
          </mxGeometry>
        </mxCell>
        <mxCell id="AUOud6_O9D8pO-yYXwd0-75" value="" style="endArrow=none;html=1;rounded=0;" edge="1" parent="1">
          <mxGeometry width="50" height="50" relative="1" as="geometry">
            <mxPoint x="526" y="244" as="sourcePoint" />
            <mxPoint x="526" y="144" as="targetPoint" />
          </mxGeometry>
        </mxCell>
        <mxCell id="AUOud6_O9D8pO-yYXwd0-78" value="" style="shape=flexArrow;endArrow=classic;startArrow=classic;html=1;rounded=0;" edge="1" parent="1">
          <mxGeometry width="100" height="100" relative="1" as="geometry">
            <mxPoint x="666" y="268" as="sourcePoint" />
            <mxPoint x="526" y="198" as="targetPoint" />
            <Array as="points">
              <mxPoint x="666" y="198" />
            </Array>
          </mxGeometry>
        </mxCell>
        <mxCell id="AUOud6_O9D8pO-yYXwd0-80" value="" style="shape=flexArrow;endArrow=classic;startArrow=classic;html=1;rounded=0;" edge="1" parent="1">
          <mxGeometry width="100" height="100" relative="1" as="geometry">
            <mxPoint x="696" y="130" as="sourcePoint" />
            <mxPoint x="526" y="166" as="targetPoint" />
            <Array as="points">
              <mxPoint x="696" y="166" />
            </Array>
          </mxGeometry>
        </mxCell>
        <mxCell id="AUOud6_O9D8pO-yYXwd0-81" value="https://api.gynn.io&lt;br&gt;https://prometheus.gynn.io&lt;br&gt;https://grafana.gynn.io" style="rounded=1;whiteSpace=wrap;html=1;" vertex="1" parent="1">
          <mxGeometry x="191" y="520" width="150" height="60" as="geometry" />
        </mxCell>
        <mxCell id="AUOud6_O9D8pO-yYXwd0-82" value="" style="endArrow=classic;startArrow=classic;html=1;rounded=0;exitX=0.375;exitY=-0.067;exitDx=0;exitDy=0;exitPerimeter=0;" edge="1" parent="1">
          <mxGeometry width="50" height="50" relative="1" as="geometry">
            <mxPoint x="130" y="551" as="sourcePoint" />
            <mxPoint x="190" y="551.02" as="targetPoint" />
          </mxGeometry>
        </mxCell>
        <mxCell id="AUOud6_O9D8pO-yYXwd0-84" value="kube-prometheus-stack&lt;br&gt;prometheus-adater&lt;br&gt;loki&lt;br&gt;promtail&lt;br&gt;chainscale-backend&lt;br&gt;aws-load-balancer&lt;br&gt;aws-cluster-autoscaler&lt;br&gt;snapshot-controller&lt;br&gt;ebs-csi-controller&lt;br&gt;external-resizer&lt;br&gt;kyverno&lt;br&gt;redis&lt;br&gt;redistest&lt;br&gt;clickhouse&lt;br&gt;promttheus-checker&lt;br&gt;blackbox-exporter&lt;br&gt;cert-manager&lt;br&gt;ingress-controller" style="rounded=1;whiteSpace=wrap;html=1;" vertex="1" parent="1">
          <mxGeometry x="392" y="460" width="160" height="260" as="geometry" />
        </mxCell>
        <mxCell id="AUOud6_O9D8pO-yYXwd0-85" value="&lt;font style=&quot;font-size: 40px;&quot;&gt;AZA&lt;/font&gt;" style="text;html=1;align=center;verticalAlign=middle;resizable=0;points=[];autosize=1;strokeColor=none;fillColor=none;" vertex="1" parent="1">
          <mxGeometry x="40" y="122" width="100" height="60" as="geometry" />
        </mxCell>
        <mxCell id="AUOud6_O9D8pO-yYXwd0-86" value="AZB" style="text;html=1;align=center;verticalAlign=middle;resizable=0;points=[];autosize=1;strokeColor=none;fillColor=none;fontSize=40;" vertex="1" parent="1">
          <mxGeometry x="40" y="391" width="100" height="60" as="geometry" />
        </mxCell>
      </root>
    </mxGraphModel>
  </diagram>
</mxfile>
